<?xml version="1.0" encoding="UTF-8" standalone="no"?>
<!-- Created with Inkscape (http://www.inkscape.org/) -->

<svg
   xmlns:dc="http://purl.org/dc/elements/1.1/"
   xmlns:cc="http://creativecommons.org/ns#"
   xmlns:rdf="http://www.w3.org/1999/02/22-rdf-syntax-ns#"
   xmlns:svg="http://www.w3.org/2000/svg"
   xmlns="http://www.w3.org/2000/svg"
   xmlns:sodipodi="http://sodipodi.sourceforge.net/DTD/sodipodi-0.dtd"
   xmlns:inkscape="http://www.inkscape.org/namespaces/inkscape"
   width="200"
   height="200"
   viewBox="0 0 52.916665 52.91667"
   version="1.1"
   id="svg8"
   sodipodi:docname="template-v2.svg"
   inkscape:version="0.92.4 (5da689c313, 2019-01-14)">
  <defs
     id="defs2" />
  <sodipodi:namedview
     id="base"
     pagecolor="#ffffff"
     bordercolor="#666666"
     borderopacity="1.0"
     inkscape:pageopacity="0.0"
     inkscape:pageshadow="2"
     inkscape:zoom="1.9056528"
     inkscape:cx="84.151263"
     inkscape:cy="70.751685"
     inkscape:document-units="mm"
     inkscape:current-layer="layer1"
     showgrid="false"
     units="px"
     inkscape:window-width="1600"
     inkscape:window-height="845"
     inkscape:window-x="-8"
     inkscape:window-y="-8"
     inkscape:window-maximized="1"
     inkscape:snap-intersection-paths="true"
     inkscape:snap-bbox="true"
     inkscape:snap-midpoints="true"
     inkscape:snap-center="true"
     inkscape:snap-object-midpoints="true"
     inkscape:snap-smooth-nodes="true"
     inkscape:object-paths="true"
     inkscape:snap-text-baseline="true"
     inkscape:bbox-nodes="true"
     inkscape:snap-bbox-edge-midpoints="true"
     inkscape:snap-bbox-midpoints="true"
     inkscape:bbox-paths="true" />
  <metadata
     id="metadata5">
    <rdf:RDF>
      <cc:Work
         rdf:about="">
        <dc:format>image/svg+xml</dc:format>
        <dc:type
           rdf:resource="http://purl.org/dc/dcmitype/StillImage" />
        <dc:title></dc:title>
      </cc:Work>
    </rdf:RDF>
  </metadata>
  <g
     inkscape:label="Layer 1"
     inkscape:groupmode="layer"
     id="layer1"
     transform="translate(0,-244.08332)"
     style="display:inline">
    <path
       style="fill:#ffc322;fill-opacity:1;stroke:none;stroke-width:0.1457165;stroke-opacity:1"
       d="M 51.738445,278.34687 H 1.2061272 a 26.458333,26.458333 0 0 0 25.2522058,18.65312 26.458333,26.458333 0 0 0 25.280112,-18.65312 z"
       id="path3730"
       inkscape:connector-curvature="0" />
    <path
       style="fill:#53ffe3;fill-opacity:1;stroke:none;stroke-width:0.1457165;stroke-opacity:1"
       d="M 26.458333,244.08333 A 26.458333,26.458333 0 0 0 3.4888387e-7,270.54166 26.458333,26.458333 0 0 0 1.2061272,278.34687 H 51.738445 a 26.458333,26.458333 0 0 0 1.178221,-7.80521 26.458333,26.458333 0 0 0 -26.458333,-26.45833 z"
       id="path3719"
       inkscape:connector-curvature="0" />
    <path
       style="fill:#f9ffa8;fill-opacity:1;stroke:none;stroke-width:0.27352241px;stroke-linecap:butt;stroke-linejoin:miter;stroke-opacity:1"
       d="m 8.4224053,278.34686 17.2368207,-16.6278 8.029336,16.6278 z"
       id="path4694"
       inkscape:connector-curvature="0" />
    <path
       style="fill:#dbdccb;fill-opacity:1;stroke:none;stroke-width:0.27352241px;stroke-linecap:butt;stroke-linejoin:miter;stroke-opacity:1"
       d="m 25.659226,261.71906 17.639787,16.6278 H 33.68856 Z"
       id="path4696"
       inkscape:connector-curvature="0" />
    <circle
       style="fill:#f7ff00;fill-opacity:1;stroke:none;stroke-width:0.26458332;stroke-opacity:1"
       id="path4700"
       cx="5.2916665"
       cy="-278.34683"
       r="3.96875"
       transform="scale(-1)" />
    <path
       style="fill:#b38a1c;fill-opacity:1;stroke:none;stroke-width:0.26458332px;stroke-linecap:butt;stroke-linejoin:miter;stroke-opacity:1"
       d="M 43.299012,278.34686 58.20833,279.80208 8.4224043,278.34686 Z"
       id="path4712"
       inkscape:connector-curvature="0" />
    <path
       transform="translate(0,1.2291667e-6)"
       style="display:inline;fill:#272c34;fill-opacity:1;stroke:none;stroke-width:0.1457165;stroke-opacity:1"
       d="m -2e-7,244.08333 v 26.45833 A 26.458333,26.458333 0 0 1 26.458333,244.08333 Z m 26.4583332,0 a 26.458333,26.458333 0 0 1 26.458333,26.45833 v -26.45833 z m 26.458333,26.45833 a 26.458333,26.458333 0 0 1 -1.178221,7.80521 26.458333,26.458333 0 0 1 -25.280112,18.65312 H 52.916666 Z M 26.458333,296.99999 A 26.458333,26.458333 0 0 1 1.2061278,278.34687 26.458333,26.458333 0 0 1 -2e-7,270.54166 v 26.45833 z"
       id="path4602"
       inkscape:connector-curvature="0" />
  </g>
  <g
     inkscape:groupmode="layer"
     id="layer2"
     inkscape:label="Layer 2"
     style="display:none"
     transform="translate(0,-52.916667)" />
</svg>
